<svg xmlns="http://www.w3.org/2000/svg" width="962" height="189" viewBox="0 0 962 189">
  <defs>
    <style>
      .cls-1 {
        fill: #fff;
        fill-rule: evenodd;
      }

      .cls-2 {
        fill: #00ff9c;
        stroke: #00ff9c;
        stroke-width: 1px;
      }
    </style>
  </defs>
  <path id="NewsLook" class="cls-1" d="M34.713,24.628H17.575V166.18H34.819V93.923q0-25.812-1.375-45.174h0.635Q45.4,66.629,59.787,87.258l55.543,78.922h17.244V24.628h-17.35V99.953q0,21.478,1.375,42.106h-0.635q-12.694-19.782-25.708-38.509ZM215.56,79.27a21.284,21.284,0,0,1,7.391,5.977,26.849,26.849,0,0,1,4.553,8.94,38.046,38.046,0,0,1,1.553,11.056H177.641a35.073,35.073,0,0,1,2.786-10.95,30.538,30.538,0,0,1,5.891-8.94,27.352,27.352,0,0,1,8.515-6.03A25.136,25.136,0,0,1,205.384,77.1,22.727,22.727,0,0,1,215.56,79.27Zm-16.125,73.369a31.538,31.538,0,0,1-11.8-6.084,28.694,28.694,0,0,1-7.935-10.9,41.06,41.06,0,0,1-2.909-16.346h69.4q0.1-3.174.106-4.073v-2.169q0-13.329-3.114-22.851a43.21,43.21,0,0,0-8.495-15.552,32.336,32.336,0,0,0-12.717-8.834,43.845,43.845,0,0,0-15.777-2.8A44.808,44.808,0,0,0,189,66.416a41.306,41.306,0,0,0-14.563,10.156A50.253,50.253,0,0,0,164.3,93.447q-3.8,10.1-3.8,23.856,0,13.965,3.919,23.857a41.289,41.289,0,0,0,10.844,16.028,41.989,41.989,0,0,0,16.393,8.886,72.3,72.3,0,0,0,20.26,2.751,89.781,89.781,0,0,0,17.033-1.534,53.548,53.548,0,0,0,13.33-4.179V149.465A89.13,89.13,0,0,1,228.9,153.22a77.057,77.057,0,0,1-14.864,1.323A53.744,53.744,0,0,1,199.435,152.639Zm134.98-70.354q3.211,13.226,6.209,23.91l16.7,59.985h17.233l33.5-100.5h-16.4l-18.74,62.63q-3.087,10.052-5.642,19.783h-0.427q-2.415-9.732-6.1-22L342.469,65.676h-16.4l-16.794,60.408q-3.907,14.389-5.6,22h-0.423q-1.917-7.4-5.64-19.783l-18.731-62.63h-16.4l32.623,100.5h16.572L327.942,106.2q2.811-10.05,6.045-23.91h0.428ZM441.3,86.253a12.354,12.354,0,0,1,3.767-4.867,18.877,18.877,0,0,1,6.607-3.227,35.319,35.319,0,0,1,9.7-1.164,59.508,59.508,0,0,1,13.058,1.64A96.1,96.1,0,0,1,486.984,82.6V68.638a76.809,76.809,0,0,0-12.96-4.02,71.421,71.421,0,0,0-15.5-1.587,47.965,47.965,0,0,0-13.647,1.9,33.553,33.553,0,0,0-11.32,5.713,27.3,27.3,0,0,0-7.723,9.627,30.884,30.884,0,0,0-2.857,13.753q0,7.724,2.753,12.643a21.486,21.486,0,0,0,7.217,7.776,38,38,0,0,0,9.918,4.443q5.452,1.587,10.75,2.751,4.048,0.952,7.736,2.116a27.081,27.081,0,0,1,6.491,2.962,13.909,13.909,0,0,1,4.467,4.549,13.334,13.334,0,0,1,1.661,6.982,14.14,14.14,0,0,1-1.818,7.247,14.765,14.765,0,0,1-5.194,5.184,26.579,26.579,0,0,1-8.05,3.121,47.607,47.607,0,0,1-10.491,1.058,57.4,57.4,0,0,1-13.5-1.481,86.683,86.683,0,0,1-12.36-4.02v13.753a38.44,38.44,0,0,0,4.02,1.8,53.256,53.256,0,0,0,5.872,1.851,64.416,64.416,0,0,0,7.934,1.481,78.5,78.5,0,0,0,10,.582,62.228,62.228,0,0,0,16.5-2.063,38.984,38.984,0,0,0,12.907-6.03,27.392,27.392,0,0,0,8.358-9.839A29.572,29.572,0,0,0,491.11,137.4q0-8.356-2.638-13.594a22.317,22.317,0,0,0-6.93-8.305,31.9,31.9,0,0,0-9.361-4.6q-5.068-1.533-10.756-2.8-4.139-.846-8.018-1.9a30.486,30.486,0,0,1-6.827-2.7,13.3,13.3,0,0,1-4.706-4.285,12,12,0,0,1-1.757-6.771A15.709,15.709,0,0,1,441.3,86.253Zm76.783-61.625V166.18h86.328V150.628H535.332v-126H518.087ZM698.943,132.485A36.15,36.15,0,0,1,692.6,144.7a27.227,27.227,0,0,1-9.627,7.564,28.524,28.524,0,0,1-12.22,2.592,28.874,28.874,0,0,1-12.272-2.592,27.562,27.562,0,0,1-9.733-7.564,35.543,35.543,0,0,1-6.4-12.219,54.826,54.826,0,0,1-2.275-16.451,55.233,55.233,0,0,1,2.275-16.557A36.7,36.7,0,0,1,648.69,87.2a26.882,26.882,0,0,1,9.68-7.617,30.35,30.35,0,0,1,24.545,0A26.908,26.908,0,0,1,692.6,87.2a36.793,36.793,0,0,1,6.348,12.272,55.331,55.331,0,0,1,2.274,16.557A54.923,54.923,0,0,1,698.943,132.485Zm16.133-38.139A48.415,48.415,0,0,0,705.66,77.63a41.421,41.421,0,0,0-15.022-10.791,50.291,50.291,0,0,0-20-3.809,49.341,49.341,0,0,0-19.731,3.809A42.018,42.018,0,0,0,635.889,77.63a49.258,49.258,0,0,0-9.574,16.716,65.677,65.677,0,0,0-3.386,21.688,67.258,67.258,0,0,0,3.28,21.582,47.322,47.322,0,0,0,9.469,16.662A42.307,42.307,0,0,0,650.7,165.016a50.171,50.171,0,0,0,20.048,3.809,48.956,48.956,0,0,0,19.678-3.809,42.422,42.422,0,0,0,14.97-10.738,48.673,48.673,0,0,0,9.574-16.662,65.346,65.346,0,0,0,3.386-21.582A67.655,67.655,0,0,0,715.076,94.346Zm99.394,38.139a36.132,36.132,0,0,1-6.348,12.219,27.218,27.218,0,0,1-9.627,7.564,28.522,28.522,0,0,1-12.219,2.592A28.868,28.868,0,0,1,774,152.268a27.544,27.544,0,0,1-9.733-7.564,35.544,35.544,0,0,1-6.4-12.219,54.826,54.826,0,0,1-2.275-16.451,55.233,55.233,0,0,1,2.275-16.557A36.72,36.72,0,0,1,764.218,87.2a26.874,26.874,0,0,1,9.68-7.617,30.347,30.347,0,0,1,24.544,0,26.9,26.9,0,0,1,9.68,7.617,36.775,36.775,0,0,1,6.348,12.272,55.3,55.3,0,0,1,2.274,16.557A54.891,54.891,0,0,1,814.47,132.485ZM830.6,94.346a48.415,48.415,0,0,0-9.416-16.716,41.417,41.417,0,0,0-15.023-10.791,50.284,50.284,0,0,0-20-3.809,49.341,49.341,0,0,0-19.731,3.809A42.023,42.023,0,0,0,751.417,77.63a49.277,49.277,0,0,0-9.575,16.716,65.678,65.678,0,0,0-3.385,21.688,67.259,67.259,0,0,0,3.279,21.582,47.337,47.337,0,0,0,9.469,16.662,42.3,42.3,0,0,0,15.023,10.738,50.164,50.164,0,0,0,20.048,3.809,48.955,48.955,0,0,0,19.677-3.809,42.422,42.422,0,0,0,14.97-10.738,48.675,48.675,0,0,0,9.575-16.662,65.372,65.372,0,0,0,3.385-21.582A67.683,67.683,0,0,0,830.6,94.346Zm46.866,16.186h-0.211V12.99h-16.4V166.18h16.4V112.648h0.211l48.243,53.532h20.418l-48.983-54.272,49.089-46.232H924.866Z"/>
  <ellipse class="cls-2" cx="661" cy="130.5" rx="19" ry="24.5"/>
  <ellipse id="Ellipse_1_copy" data-name="Ellipse 1 copy" class="cls-2" cx="776" cy="130.5" rx="19" ry="24.5"/>
</svg>
